<?xml version="1.0" encoding="UTF-8" standalone="no"?>
<!-- Created with Inkscape (http://www.inkscape.org/) -->

<svg
   xmlns:dc="http://purl.org/dc/elements/1.1/"
   xmlns:cc="http://creativecommons.org/ns#"
   xmlns:rdf="http://www.w3.org/1999/02/22-rdf-syntax-ns#"
   xmlns:svg="http://www.w3.org/2000/svg"
   xmlns="http://www.w3.org/2000/svg"
   xmlns:sodipodi="http://sodipodi.sourceforge.net/DTD/sodipodi-0.dtd"
   xmlns:inkscape="http://www.inkscape.org/namespaces/inkscape"
   width="350"
   height="20"
   id="svg2"
   version="1.1"
   inkscape:version="0.48.4 r9939"
   sodipodi:docname="svg07.svg">
  <defs
     id="defs4" />
  <sodipodi:namedview
     id="base"
     pagecolor="#00ffff"
     bordercolor="#666666"
     borderopacity="1.0"
     inkscape:pageopacity="1"
     inkscape:pageshadow="2"
     inkscape:zoom="3.959798"
     inkscape:cx="110.51524"
     inkscape:cy="-56.062417"
     inkscape:document-units="px"
     inkscape:current-layer="layer1"
     showgrid="false"
     inkscape:window-width="1920"
     inkscape:window-height="1025"
     inkscape:window-x="-2"
     inkscape:window-y="-3"
     inkscape:window-maximized="1" />
  <metadata
     id="metadata7">
    <rdf:RDF>
      <cc:Work
         rdf:about="">
        <dc:format>image/svg+xml</dc:format>
        <dc:type
           rdf:resource="http://purl.org/dc/dcmitype/StillImage" />
        <dc:title />
      </cc:Work>
    </rdf:RDF>
  </metadata>
  <g
     inkscape:label="Ebene 1"
     inkscape:groupmode="layer"
     id="layer1"
     transform="translate(0,-1032.3622)">
    <g
       id="g3081"
       transform="translate(720.48237,838.52815)">
      <path
         sodipodi:nodetypes="ccccc"
         inkscape:connector-curvature="0"
         id="rect3973"
         d="m -720.48237,208.81933 350,-5 0,10 -350,0 z"
         style="fill:#bb8b72;fill-opacity:1;stroke:none" />
      <path
         sodipodi:nodetypes="cc"
         inkscape:connector-curvature="0"
         id="path3996-6"
         d="m -370.48237,203.81933 -350,5"
         style="fill:#737975;fill-opacity:1;stroke:#737975;stroke-width:1px;stroke-linecap:butt;stroke-linejoin:miter;stroke-opacity:1" />
      <path
         sodipodi:nodetypes="ccccc"
         inkscape:connector-curvature="0"
         id="rect3973-7"
         d="m -720.48237,193.81933 350,0 0,10 -350,5 z"
         style="fill:#bfc0b8;fill-opacity:1;stroke:none" />
      <path
         inkscape:connector-curvature="0"
         id="path3924"
         d="m -394.51481,195.16993 c 0,0 0.0205,5.73598 0.0205,9.46259 -1.59429,-2.8689 -2.89441,-7.09694 -8.48351,-9.42563 l -2.71143,0 0,17.18791 2.93739,0 0,-10.49756 c 1.29409,0.22739 4.48861,1.84816 8.29863,10.34971 l 3.04008,0 0,-17.07702 -3.10171,0 z m -26.92946,0.0739 0.0411,4.28773 10.59924,0 0,4.43559 c 0,0.68115 0.42858,3.77025 -2.0952,3.77025 l -5.75152,0 0,-5.69233 -2.75252,0 0,10.42363 9.3257,0 c 2.10627,0 4.76555,-3.6764 4.76555,-7.46658 l 0,-9.75829 -14.13233,0 z m 40.71258,0 -0.041,10.86719 3.01955,0 0,-10.86719 -2.97847,0 z m -9.03811,0.0739 c 0,0 1.39879,6.56142 2.64982,10.4606 0.7662,2.38809 1.73363,6.65338 3.26604,6.65338 l 11.70847,0 0,-16.96613 -2.83469,0 0,12.45662 -7.1894,0 c -0.66727,0 -1.2275,-1.2149 -1.56114,-2.25476 -1.48279,-4.62154 -2.83467,-10.34971 -2.83467,-10.34971 l -3.20443,0 z"
         style="fill:#596e6d;fill-opacity:1;stroke:none;opacity:0.3" />
      <path
         sodipodi:nodetypes="cc"
         inkscape:connector-curvature="0"
         id="path3996-8"
         d="m -451.52214,193.81933 15,20"
         style="fill:#737975;fill-opacity:1;stroke:#737975;stroke-width:0.69999999000000002;stroke-linecap:butt;stroke-linejoin:miter;stroke-miterlimit:4;stroke-opacity:1;stroke-dasharray:none;opacity:0.3" />
      <path
         sodipodi:nodetypes="cc"
         inkscape:connector-curvature="0"
         id="path3996-8-8"
         d="m -427.07849,193.81933 -5,20"
         style="fill:#737975;fill-opacity:1;stroke:#737975;stroke-width:0.69999999000000002;stroke-linecap:butt;stroke-linejoin:miter;stroke-miterlimit:4;stroke-opacity:1;stroke-dasharray:none;opacity:0.3" />
      <rect
         rx="0"
         ry="0"
         y="194.1185"
         x="-720.18317"
         height="19.4016"
         width="349.40161"
         id="rect2993-9"
         style="fill:none;stroke:#596e6d;stroke-width:0.5984;stroke-miterlimit:4;stroke-opacity:1;stroke-dasharray:none" />
      <path
         sodipodi:nodetypes="cc"
         inkscape:connector-curvature="0"
         id="path3996-8-8-7"
         d="m -445.36516,193.84877 -5,20"
         style="fill:#737975;fill-opacity:1;stroke:#737975;stroke-width:0.69999999000000002;stroke-linecap:butt;stroke-linejoin:miter;stroke-miterlimit:4;stroke-opacity:1;stroke-dasharray:none;opacity:0.3" />
    </g>
    <text
       xml:space="preserve"
       style="font-size:16px;font-style:normal;font-weight:bold;line-height:125%;letter-spacing:0px;word-spacing:0px;fill:#000000;fill-opacity:1;stroke:none;font-family:Sans;-inkscape-font-specification:Sans Bold"
       x="3"
       y="1047.1356"
       id="text3023"
       sodipodi:linespacing="125%"><tspan
         sodipodi:role="line"
         id="tspan3025"
         x="3"
         y="1047.1356"><animate
   attributeName="x"
   dur="20s"
   from="350"
   to="-1050"
   repeatCount="indefinite"
   id="animate13" />{SERVERNAME} {HOSTNAME} {GAMETYPE} {MAPNAME} {N}/{M}</tspan></text>
  </g>
</svg>
