<?xml version="1.0" encoding="UTF-8" standalone="no"?>
<!-- Created with Inkscape (http://www.inkscape.org/) -->

<svg
   xmlns:dc="http://purl.org/dc/elements/1.1/"
   xmlns:cc="http://creativecommons.org/ns#"
   xmlns:rdf="http://www.w3.org/1999/02/22-rdf-syntax-ns#"
   xmlns:svg="http://www.w3.org/2000/svg"
   xmlns="http://www.w3.org/2000/svg"
   xmlns:sodipodi="http://sodipodi.sourceforge.net/DTD/sodipodi-0.dtd"
   xmlns:inkscape="http://www.inkscape.org/namespaces/inkscape"
   width="130"
   height="130"
   id="svg2985"
   version="1.1"
   inkscape:version="0.48.4 r9939"
   sodipodi:docname="svg08.svg">
  <defs
     id="defs2987" />
  <sodipodi:namedview
     id="base"
     pagecolor="#ffffff"
     bordercolor="#666666"
     borderopacity="1.0"
     inkscape:pageopacity="0.0"
     inkscape:pageshadow="2"
     inkscape:zoom="2.8284272"
     inkscape:cx="171.20315"
     inkscape:cy="37.298688"
     inkscape:document-units="px"
     inkscape:current-layer="layer1"
     showgrid="true"
     inkscape:window-width="1680"
     inkscape:window-height="969"
     inkscape:window-x="-8"
     inkscape:window-y="-8"
     inkscape:window-maximized="1"
     inkscape:showpageshadow="false"
     objecttolerance="10000"
     gridtolerance="1"
     showguides="true"
     inkscape:guide-bbox="true" />
  <metadata
     id="metadata2990">
    <rdf:RDF>
      <cc:Work
         rdf:about="">
        <dc:format>image/svg+xml</dc:format>
        <dc:type
           rdf:resource="http://purl.org/dc/dcmitype/StillImage" />
        <dc:title />
      </cc:Work>
    </rdf:RDF>
  </metadata>
  <g
     id="layer1"
     inkscape:label="Layer 1"
     inkscape:groupmode="layer"
     transform="translate(0,40)">
    <path
       style="fill:#ffffff;fill-opacity:1;stroke:none"
       d="m 0,-35 125,0 0,95 -125,5 z"
       id="rect3973-7"
       inkscape:connector-curvature="0"
       sodipodi:nodetypes="ccccc" />
    <path
       style="opacity:0.5;fill:#737975;fill-opacity:1;stroke:#737975;stroke-width:0.72589415;stroke-linecap:butt;stroke-linejoin:miter;stroke-miterlimit:4;stroke-opacity:1;stroke-dasharray:none"
       d="M 116.00932,-39.279946 90.012947,89.987053"
       id="path3996-8-8"
       inkscape:connector-curvature="0"
       sodipodi:nodetypes="cc" />
    <path
       style="opacity:0.5;fill:#737975;fill-opacity:1;stroke:#737975;stroke-width:0.72784406;stroke-linecap:butt;stroke-linejoin:miter;stroke-miterlimit:4;stroke-opacity:1;stroke-dasharray:none"
       d="M 35.013922,-39.986078 76.605012,89.986078"
       id="path3996-8"
       inkscape:connector-curvature="0"
       sodipodi:nodetypes="cc" />
    <path
       style="opacity:0.5;fill:#737975;fill-opacity:1;stroke:#737975;stroke-width:0.72590083;stroke-linecap:butt;stroke-linejoin:miter;stroke-miterlimit:4;stroke-opacity:1;stroke-dasharray:none"
       d="M 25.810439,-39.279943 5.0129504,89.98705"
       id="path3996-8-8-7"
       inkscape:connector-curvature="0"
       sodipodi:nodetypes="cc" />
    <path
       style="fill:#d38d5f;fill-opacity:1;stroke:none"
       d="M 0,64 130,58.8 130,90 0,90 z"
       id="rect3973"
       inkscape:connector-curvature="0"
       sodipodi:nodetypes="ccccc" />
    <path
       style="fill:#596e6d;fill-opacity:1;stroke:none"
       d="m 69.909879,68.024774 c 0,0 0.04784,6.018141 0.04784,9.928065 -3.720953,-3.01002 -6.755337,-7.44605 -19.79988,-9.889285 l -6.328276,0 0,18.033403 6.85565,0 0,-11.013948 c 3.020309,0.238578 10.476081,1.939073 19.368384,10.858826 l 7.095321,0 0,-17.917061 -7.239161,0 z m -62.8513574,0.07757 0.095925,4.498654 24.7378384,0 0,4.653777 c 0,0.714654 1.000275,3.95572 -4.89004,3.95572 l -13.423621,0 0,-5.97235 -6.4241774,0 0,10.936385 21.7654904,0 c 4.915878,0 11.122441,-3.857251 11.122441,-7.833871 l 0,-10.238314 -32.9838091,0 z m 95.0201284,0 -0.0957,11.40176 7.0474,0 0,-11.40176 -6.95152,0 z m -21.094272,0.07756 c 0,0 3.264671,6.884183 6.184484,10.975175 1.788253,2.505565 4.046162,6.980668 7.622694,6.980668 l 27.326694,0 0,-17.800715 -6.61594,0 0,13.069373 -16.779537,0 c -1.557359,0 -2.864894,-1.274667 -3.643585,-2.365676 C 91.618467,74.189837 88.46328,68.179893 88.46328,68.179893 l -7.478902,0 z"
       id="path3924"
       inkscape:connector-curvature="0" />
    <rect
       style="fill:none;stroke:#596e6d;stroke-width:0.9380126;stroke-miterlimit:4;stroke-opacity:1;stroke-dasharray:none"
       id="rect2993-9"
       width="129.06198"
       height="129.06198"
       x="0.46900457"
       y="-39.530991"
       ry="0"
       rx="0" />
    <path
       style="fill:#737975;fill-opacity:1;stroke:#737975;stroke-width:1.03968251px;stroke-linecap:butt;stroke-linejoin:miter;stroke-opacity:1"
       d="M 129.98016,59.781746 0.01984127,64.980159"
       id="path3996-6"
       inkscape:connector-curvature="0"
       sodipodi:nodetypes="cc" />
    <g
       id="g3904"
       transform="matrix(0.73815862,0,0,0.73815862,160.35422,-105.12764)"
       style="fill:#000000;fill-opacity:1">
      <g
         inkscape:label="folder-remote"
         id="g11104"
         transform="translate(-295.4998,-893.03125)"
         style="fill:#000000;fill-opacity:1">
        <path
           style="fill:#000000;fill-opacity:1;stroke:none;display:inline"
           sodipodi:nodetypes="ccsssccsssccc"
           id="path11106"
           d="m 233.9998,1008 0,2 -5.53125,0 c -0.26299,0 -0.46875,0.2057 -0.46875,0.4688 l 0,1.0624 c 0,0.263 0.20576,0.4688 0.46875,0.4688 4.35417,0 8.70833,0 13.0625,0 0.26299,0 0.46875,-0.2058 0.46875,-0.4688 l 0,-1.0624 c 0,-0.263 -0.20575,-0.4688 -0.46875,-0.4688 l -5.53125,0 0,-2 z"
           inkscape:connector-curvature="0" />
      </g>
      <path
         style="font-size:medium;font-style:normal;font-variant:normal;font-weight:normal;font-stretch:normal;text-indent:0;text-align:start;text-decoration:none;line-height:normal;letter-spacing:normal;word-spacing:normal;text-transform:none;direction:ltr;block-progression:tb;writing-mode:lr-tb;text-anchor:start;color:#000000;fill:#000000;fill-opacity:1;stroke:none;stroke-width:2;marker:none;visibility:visible;display:inline;overflow:visible;enable-background:accumulate;font-family:Bitstream Vera Sans;-inkscape-font-specification:Bitstream Vera Sans"
         id="rect11110"
         d="m -63.375,103.03125 c -1.12533,0 -2.0625,0.93717 -2.0625,2.0625 l 0,7.8125 c 0,1.12533 0.93717,2.0625 2.0625,2.0625 l 5.8125,0 c 1.12533,0 2.0625,-0.93717 2.0625,-2.0625 l 0,-7.8125 c 0,-1.12533 -0.93717,-2.0625 -2.0625,-2.0625 l -5.8125,0 z m 0,2 5.8125,0 c 0.0519,0 0.0625,0.0106 0.0625,0.0625 l 0,7.8125 c 0,0.0519 -0.0106,0.0625 -0.0625,0.0625 l -5.8125,0 c -0.0519,0 -0.0625,-0.0106 -0.0625,-0.0625 l 0,-7.8125 c 0,-0.0519 0.0106,-0.0625 0.0625,-0.0625 z"
         inkscape:connector-curvature="0" />
      <rect
         style="color:#000000;fill:#000000;fill-opacity:1;stroke:none;stroke-width:2;marker:none;visibility:visible;display:inline;overflow:visible;enable-background:accumulate"
         width="4.0625"
         height="1.0625"
         id="rect11880"
         y="105.9375"
         x="-62.5" />
      <rect
         width="1.0625"
         style="color:#000000;fill:#000000;fill-opacity:1;stroke:none;stroke-width:2;marker:none;visibility:visible;display:inline;overflow:visible;enable-background:accumulate"
         height="1.0625"
         id="rect11882"
         y="107.96875"
         x="-59.5" />
    </g>
    <g
       id="SERVERINFO"
       transform="translate(1.052251,0.84745664)"
       y="100">
      <rect
         ry="1.6074464"
         y="-24.48782"
         x="5.2942243"
         height="13.126595"
         width="100.82815"
         id="rect3021"
         style="fill:#999d97;fill-opacity:1;stroke:#999d97;stroke-width:0.617118;stroke-miterlimit:4;stroke-opacity:1;stroke-dasharray:none" />
      <text
         transform="scale(1.016663,0.98361011)"
         sodipodi:linespacing="100%"
         id="text3955-2"
         y="-14.105001"
         x="6.8488092"
         style="font-size:11px;font-style:normal;font-variant:normal;font-weight:normal;font-stretch:normal;text-align:start;line-height:100%;letter-spacing:0px;word-spacing:0px;writing-mode:lr-tb;text-anchor:start;fill:#171515;fill-opacity:1;stroke:none;font-family:Sans;-inkscape-font-specification:Sans"
         xml:space="preserve"><tspan
           id="tspan4030-7"
           y="-14.105001"
           x="6.8488092"
           sodipodi:role="line">Server Name</tspan></text>
      <text
         xml:space="preserve"
         style="font-size:11px;font-style:normal;font-variant:normal;font-weight:bold;font-stretch:normal;text-align:start;line-height:100%;letter-spacing:0px;word-spacing:0px;writing-mode:lr-tb;text-anchor:start;fill:#171515;fill-opacity:1;stroke:none;font-family:Sans;-inkscape-font-specification:Sans Bold"
         x="3.4868348"
         y="3.5914788"
         id="text3809"
         sodipodi:linespacing="100%"><tspan
           sodipodi:role="line"
           id="tspan3811"
           x="3.4868348"
           y="3.5914788">{SERVERNAME}</tspan></text>
      <rect
         ry="1.6074464"
         y="16.370201"
         x="5.0349283"
         height="13.126595"
         width="100.82815"
         id="rect3021-0"
         style="fill:#999d97;fill-opacity:1;stroke:#999d97;stroke-width:0.617118;stroke-miterlimit:4;stroke-opacity:1;stroke-dasharray:none" />
      <text
         transform="scale(1.016663,0.98361011)"
         sodipodi:linespacing="100%"
         id="text3955-2-5"
         y="27.433836"
         x="6.5937657"
         style="font-size:11px;font-style:normal;font-variant:normal;font-weight:normal;font-stretch:normal;text-align:start;line-height:100%;letter-spacing:0px;word-spacing:0px;writing-mode:lr-tb;text-anchor:start;fill:#171515;fill-opacity:1;stroke:none;font-family:Sans;-inkscape-font-specification:Sans"
         xml:space="preserve"><tspan
           id="tspan4030-7-7"
           y="27.433836"
           x="6.5937657"
           sodipodi:role="line">Hostname</tspan></text>
      <text
         xml:space="preserve"
         style="font-size:11px;font-style:normal;font-variant:normal;font-weight:bold;font-stretch:normal;text-align:start;line-height:100%;letter-spacing:0px;word-spacing:0px;writing-mode:lr-tb;text-anchor:start;fill:#171515;fill-opacity:1;stroke:none;font-family:Sans;-inkscape-font-specification:Sans Bold"
         x="3.7578702"
         y="44.449501"
         id="text3809-5"
         sodipodi:linespacing="100%"><tspan
           sodipodi:role="line"
           id="tspan3811-4"
           x="3.7578702"
           y="44.449501">{HOSTNAME}</tspan></text>
      <rect
         ry="1.6074464"
         y="56.692532"
         x="4.0415668"
         height="13.126595"
         width="100.82815"
         id="rect3021-0-3"
         style="fill:#999d97;fill-opacity:1;stroke:#999d97;stroke-width:0.617118;stroke-miterlimit:4;stroke-opacity:1;stroke-dasharray:none" />
      <text
         transform="scale(1.016663,0.98361011)"
         sodipodi:linespacing="100%"
         id="text3955-2-5-4"
         y="68.428055"
         x="5.6166868"
         style="font-size:11px;font-style:normal;font-variant:normal;font-weight:normal;font-stretch:normal;text-align:start;line-height:100%;letter-spacing:0px;word-spacing:0px;writing-mode:lr-tb;text-anchor:start;fill:#171515;fill-opacity:1;stroke:none;font-family:Sans;-inkscape-font-specification:Sans"
         xml:space="preserve"><tspan
           id="tspan4030-7-7-4"
           y="68.428055"
           x="5.6166868"
           sodipodi:role="line">Map</tspan></text>
      <text
         xml:space="preserve"
         style="font-size:11px;font-style:normal;font-variant:normal;font-weight:bold;font-stretch:normal;text-align:start;line-height:100%;letter-spacing:0px;word-spacing:0px;writing-mode:lr-tb;text-anchor:start;fill:#171515;fill-opacity:1;stroke:none;font-family:Sans;-inkscape-font-specification:Sans Bold"
         x="2.7644901"
         y="84.771828"
         id="text3809-5-0"
         sodipodi:linespacing="100%"><tspan
           sodipodi:role="line"
           id="tspan3811-4-6"
           x="2.7644901"
           y="84.771828">{MAPNAME}</tspan></text>
      <rect
         ry="1.6074464"
         y="98.411827"
         x="2.9808974"
         height="13.126595"
         width="100.82815"
         id="rect3021-0-6"
         style="fill:#999d97;fill-opacity:1;stroke:#999d97;stroke-width:0.617118;stroke-miterlimit:4;stroke-opacity:1;stroke-dasharray:none" />
      <text
         transform="scale(1.016663,0.98361011)"
         sodipodi:linespacing="100%"
         id="text3955-2-5-48"
         y="110.84252"
         x="4.5734"
         style="font-size:11px;font-style:normal;font-variant:normal;font-weight:normal;font-stretch:normal;text-align:start;line-height:100%;letter-spacing:0px;word-spacing:0px;writing-mode:lr-tb;text-anchor:start;fill:#171515;fill-opacity:1;stroke:none;font-family:Sans;-inkscape-font-specification:Sans"
         xml:space="preserve"><tspan
           id="tspan4030-7-7-7"
           y="110.84252"
           x="4.5734"
           sodipodi:role="line">Player</tspan></text>
      <text
         xml:space="preserve"
         style="font-size:11px;font-style:normal;font-variant:normal;font-weight:bold;font-stretch:normal;text-align:start;line-height:100%;letter-spacing:0px;word-spacing:0px;writing-mode:lr-tb;text-anchor:start;fill:#171515;fill-opacity:1;stroke:none;font-family:Sans;-inkscape-font-specification:Sans Bold"
         x="1.7038392"
         y="126.49113"
         id="text3809-5-3"
         sodipodi:linespacing="100%"><tspan
           sodipodi:role="line"
           id="tspan3811-4-2"
           x="1.7038392"
           y="126.49113">{N}/{M}}</tspan></text>
      <rect
         style="fill:none;stroke:none"
         id="rect4066"
         width="125"
         height="111.01576"
         x="-1.052251"
         y="-28.855337" />
      <animate
         id="animate3978"
         attributeName="y"
         dur="20s"
         from="100"
         to="150"
         repeatCount="idenfinite" />
    </g>
  </g>
</svg>
