<?xml version="1.0" encoding="UTF-8" standalone="no"?>
<!-- Created with Inkscape (http://www.inkscape.org/) -->

<svg
   xmlns:dc="http://purl.org/dc/elements/1.1/"
   xmlns:cc="http://creativecommons.org/ns#"
   xmlns:rdf="http://www.w3.org/1999/02/22-rdf-syntax-ns#"
   xmlns:svg="http://www.w3.org/2000/svg"
   xmlns="http://www.w3.org/2000/svg"
   xmlns:sodipodi="http://sodipodi.sourceforge.net/DTD/sodipodi-0.dtd"
   xmlns:inkscape="http://www.inkscape.org/namespaces/inkscape"
   width="350"
   height="20"
   id="svg2985"
   version="1.1"
   inkscape:version="0.48.4 r9939"
   sodipodi:docname="svg01.svg">
  <defs
     id="defs2987" />
  <sodipodi:namedview
     id="base"
     pagecolor="#ffffff"
     bordercolor="#666666"
     borderopacity="1.0"
     inkscape:pageopacity="0.0"
     inkscape:pageshadow="2"
     inkscape:zoom="5.6568542"
     inkscape:cx="93.676249"
     inkscape:cy="-34.40089"
     inkscape:document-units="px"
     inkscape:current-layer="layer1"
     showgrid="true"
     inkscape:window-width="1680"
     inkscape:window-height="969"
     inkscape:window-x="-8"
     inkscape:window-y="-8"
     inkscape:window-maximized="1"
     inkscape:showpageshadow="false"
     objecttolerance="10000" />
  <metadata
     id="metadata2990">
    <rdf:RDF>
      <cc:Work
         rdf:about="">
        <dc:format>image/svg+xml</dc:format>
        <dc:type
           rdf:resource="http://purl.org/dc/dcmitype/StillImage" />
        <dc:title />
      </cc:Work>
    </rdf:RDF>
  </metadata>
  <g
     id="layer1"
     inkscape:label="Layer 1"
     inkscape:groupmode="layer"
     transform="translate(0,-70)">
    <path
       style="fill:#d38d5f;fill-opacity:1;stroke:none"
       d="M 0,85 350,80 350,90 0,90 z"
       id="rect3973"
       inkscape:connector-curvature="0"
       sodipodi:nodetypes="ccccc" />
    <path
       style="fill:#737975;fill-opacity:1;stroke:#737975;stroke-width:1px;stroke-linecap:butt;stroke-linejoin:miter;stroke-opacity:1"
       d="M 350,80 0,85"
       id="path3996-6"
       inkscape:connector-curvature="0"
       sodipodi:nodetypes="cc" />
    <path
       style="fill:#ffffff;fill-opacity:1;stroke:none"
       d="m 0,70 350,0 0,10 -350,5 z"
       id="rect3973-7"
       inkscape:connector-curvature="0"
       sodipodi:nodetypes="ccccc" />
    <g
       id="g3904"
       transform="translate(69.987617,-31.024762)"
       style="fill:#000000;fill-opacity:1">
      <g
         inkscape:label="folder-remote"
         id="g11104"
         transform="translate(-295.4998,-893.03125)"
         style="fill:#000000;fill-opacity:1">
        <path
           style="fill:#000000;fill-opacity:1;stroke:none;display:inline"
           sodipodi:nodetypes="ccsssccsssccc"
           id="path11106"
           d="m 233.9998,1008 0,2 -5.53125,0 c -0.26299,0 -0.46875,0.2057 -0.46875,0.4688 l 0,1.0624 c 0,0.263 0.20576,0.4688 0.46875,0.4688 4.35417,0 8.70833,0 13.0625,0 0.26299,0 0.46875,-0.2058 0.46875,-0.4688 l 0,-1.0624 c 0,-0.263 -0.20575,-0.4688 -0.46875,-0.4688 l -5.53125,0 0,-2 z"
           inkscape:connector-curvature="0" />
      </g>
      <path
         style="font-size:medium;font-style:normal;font-variant:normal;font-weight:normal;font-stretch:normal;text-indent:0;text-align:start;text-decoration:none;line-height:normal;letter-spacing:normal;word-spacing:normal;text-transform:none;direction:ltr;block-progression:tb;writing-mode:lr-tb;text-anchor:start;color:#000000;fill:#000000;fill-opacity:1;stroke:none;stroke-width:2;marker:none;visibility:visible;display:inline;overflow:visible;enable-background:accumulate;font-family:Bitstream Vera Sans;-inkscape-font-specification:Bitstream Vera Sans"
         id="rect11110"
         d="m -63.375,103.03125 c -1.12533,0 -2.0625,0.93717 -2.0625,2.0625 l 0,7.8125 c 0,1.12533 0.93717,2.0625 2.0625,2.0625 l 5.8125,0 c 1.12533,0 2.0625,-0.93717 2.0625,-2.0625 l 0,-7.8125 c 0,-1.12533 -0.93717,-2.0625 -2.0625,-2.0625 l -5.8125,0 z m 0,2 5.8125,0 c 0.0519,0 0.0625,0.0106 0.0625,0.0625 l 0,7.8125 c 0,0.0519 -0.0106,0.0625 -0.0625,0.0625 l -5.8125,0 c -0.0519,0 -0.0625,-0.0106 -0.0625,-0.0625 l 0,-7.8125 c 0,-0.0519 0.0106,-0.0625 0.0625,-0.0625 z"
         inkscape:connector-curvature="0" />
      <rect
         style="color:#000000;fill:#000000;fill-opacity:1;stroke:none;stroke-width:2;marker:none;visibility:visible;display:inline;overflow:visible;enable-background:accumulate"
         width="4.0625"
         height="1.0625"
         id="rect11880"
         y="105.9375"
         x="-62.5" />
      <rect
         width="1.0625"
         style="color:#000000;fill:#000000;fill-opacity:1;stroke:none;stroke-width:2;marker:none;visibility:visible;display:inline;overflow:visible;enable-background:accumulate"
         height="1.0625"
         id="rect11882"
         y="107.96875"
         x="-59.5" />
    </g>
    <path
       style="fill:#333333;fill-opacity:1;stroke:none"
       d="m 313.85548,71.350599 c 0,0 0.0316,5.735981 0.0316,9.462588 -2.45753,-2.868894 -4.46162,-7.096942 -13.07698,-9.425626 l -4.17956,0 0,17.187907 4.52786,0 0,-10.497558 c 1.99479,0.227391 6.91901,1.848159 12.792,10.349708 l 4.68616,0 0,-17.077019 -4.78116,0 z m -41.51066,0.07393 0.0633,4.287735 16.3383,0 0,4.435585 c 0,0.681146 0.66064,3.770255 -3.22967,3.770255 l -8.86573,0 0,-5.692336 -4.2429,0 0,10.423632 14.37519,0 c 3.24673,0 7.3459,-3.676404 7.3459,-7.46658 l 0,-9.75829 -21.78441,0 z m 62.75677,0 -0.0632,10.867188 4.65452,0 0,-10.867188 -4.59119,0 z m -13.93187,0.07392 c 0,0 2.15617,6.561417 4.08459,10.460603 1.18106,2.388091 2.67232,6.653381 5.03446,6.653381 l 18.04813,0 0,-16.96613 -4.36956,0 0,12.456615 -11.08216,0 c -1.02857,0 -1.89215,-1.214903 -2.40644,-2.254761 -2.28566,-4.621539 -4.36953,-10.349707 -4.36953,-10.349707 l -4.93949,0 z"
       id="path3924"
       inkscape:connector-curvature="0" />
    <path
       style="fill:#737975;fill-opacity:1;stroke:#737975;stroke-width:0.69999999;stroke-linecap:butt;stroke-linejoin:miter;stroke-miterlimit:4;stroke-opacity:1;stroke-dasharray:none"
       d="m 268.96023,70 15,20"
       id="path3996-8"
       inkscape:connector-curvature="0"
       sodipodi:nodetypes="cc" />
    <path
       style="fill:#737975;fill-opacity:1;stroke:#737975;stroke-width:0.69999999;stroke-linecap:butt;stroke-linejoin:miter;stroke-miterlimit:4;stroke-opacity:1;stroke-dasharray:none"
       d="m 293.40388,70 -5,20"
       id="path3996-8-8"
       inkscape:connector-curvature="0"
       sodipodi:nodetypes="cc" />
    <rect
       style="fill:none;stroke:#596e6d;stroke-width:0.59840000000000004;stroke-miterlimit:4;stroke-opacity:1;stroke-dasharray:none"
       id="rect2993-9"
       width="349.40161"
       height="19.4016"
       x="0.29919434"
       y="70.299202"
       ry="0"
       rx="0" />
    <path
       style="fill:#737975;fill-opacity:1;stroke:#737975;stroke-width:0.69999999;stroke-linecap:butt;stroke-linejoin:miter;stroke-miterlimit:4;stroke-opacity:1;stroke-dasharray:none"
       d="m 275.11721,70.029437 -5,20"
       id="path3996-8-8-7"
       inkscape:connector-curvature="0"
       sodipodi:nodetypes="cc" />
    <text
       xml:space="preserve"
       style="font-size:11px;font-style:normal;font-variant:normal;font-weight:normal;font-stretch:normal;text-align:start;line-height:100%;letter-spacing:0px;word-spacing:0px;writing-mode:lr-tb;text-anchor:start;fill:#171515;fill-opacity:1;stroke:none;font-family:Sans;-inkscape-font-specification:Sans"
       x="21.636215"
       y="87.545898"
       id="text3955-9"
       sodipodi:linespacing="100%"><tspan
         sodipodi:role="line"
         x="21.636215"
         y="87.545898"
         id="tspan4030-5"
         style="font-size:11px;font-style:normal;font-variant:normal;font-weight:normal;font-stretch:normal;text-align:start;line-height:100%;writing-mode:lr-tb;text-anchor:start;fill:#171515;fill-opacity:1;font-family:Sans;-inkscape-font-specification:Sans">{HOSTNAME} {N}/{M} {MAPNAME}</tspan></text>
    <text
       xml:space="preserve"
       style="font-size:8px;font-style:normal;font-variant:normal;font-weight:normal;font-stretch:normal;text-align:start;line-height:100%;letter-spacing:0px;word-spacing:0px;writing-mode:lr-tb;text-anchor:start;fill:#171515;fill-opacity:1;stroke:none;font-family:Sans;-inkscape-font-specification:Sans"
       x="22.188461"
       y="77.67942"
       id="text3955"
       sodipodi:linespacing="100%"><tspan
         sodipodi:role="line"
         x="22.188461"
         y="77.67942"
         id="tspan4030">{SERVERNAME}</tspan></text>
  </g>
</svg>
